<svg width="26" height="26" viewBox="0 0 26 26" fill="none" xmlns="http://www.w3.org/2000/svg">
<path d="M19.0365 2.96532L23.887 2.96673C24.2086 2.96682 24.517 3.10177 24.7443 3.34188C24.9717 3.582 25.0994 3.90761 25.0993 4.24708L25.0939 24.7271C25.0938 25.0666 24.966 25.3921 24.7385 25.6321C24.5111 25.8721 24.2026 26.0068 23.881 26.0067L2.0536 26.0004C1.73199 26.0003 1.42359 25.8653 1.19624 25.6252C0.968888 25.3851 0.841215 25.0595 0.841303 24.72L0.846653 4.24002C0.846742 3.90055 0.974586 3.57501 1.20206 3.33503C1.42954 3.09505 1.73801 2.96028 2.05962 2.96038L6.91015 2.96179L6.91081 0.401789L9.33608 0.402495L9.33541 2.96249L16.6112 2.96461L16.6119 0.404613L19.0371 0.405319L19.0365 2.96532ZM3.27024 10.6407L3.2669 23.4407L22.669 23.4464L22.6723 10.6464L3.27024 10.6407ZM5.69417 15.7614L11.7573 15.7632L11.756 20.8832L5.69283 20.8814L5.69417 15.7614Z" fill="white"/>
</svg>
