<svg width="32" height="32" viewBox="0 0 32 32" fill="none" xmlns="http://www.w3.org/2000/svg">
<path d="M22.1393 4.42403L27.26 4.42544C27.5995 4.42553 27.9251 4.5605 28.1651 4.80064C28.4051 5.04078 28.5399 5.36644 28.5398 5.70596L28.5341 26.1886C28.534 26.5282 28.3991 26.8537 28.1589 27.0937C27.9188 27.3338 27.5931 27.4685 27.2536 27.4684L4.21061 27.4621C3.87109 27.462 3.54551 27.327 3.3055 27.0869C3.06548 26.8467 2.9307 26.5211 2.93079 26.1816L2.93644 5.6989C2.93653 5.35938 3.0715 5.0338 3.31164 4.79379C3.55179 4.55378 3.87744 4.41899 4.21696 4.41909L9.33763 4.4205L9.33834 1.86016L11.8987 1.86087L11.898 4.4212L19.579 4.42332L19.5797 1.86299L22.14 1.86369L22.1393 4.42403ZM5.49501 12.1004L5.49148 24.9021L25.9742 24.9078L25.9777 12.1061L5.49501 12.1004ZM8.05393 17.2218L14.4548 17.2236L14.4534 22.3442L8.05252 22.3425L8.05393 17.2218Z" fill="#4C655C"/>
</svg>
