<svg width="32" height="32" viewBox="0 0 32 32" fill="none" xmlns="http://www.w3.org/2000/svg">
<g clip-path="url(#clip0_2_1261)">
<path d="M2.91 12.264C2.9096 11.2555 3.10814 10.2568 3.49426 9.32516C3.88038 8.3935 4.44649 7.54714 5.16017 6.83457C5.87385 6.122 6.72108 5.55721 7.65335 5.17253C8.58561 4.78786 9.58461 4.59086 10.5931 4.59283L20.8345 4.59565C25.0756 4.59682 28.5145 8.04782 28.5133 12.2711L28.5091 27.6408L10.5868 27.6358C6.34557 27.6347 2.90671 24.1837 2.90787 19.9604L2.91 12.264ZM25.9495 25.0797L25.953 12.2704C25.95 10.914 25.4095 9.61419 24.45 8.65557C23.4905 7.69695 22.1901 7.15771 20.8337 7.15598L10.5924 7.15316C9.92013 7.15129 9.25409 7.28215 8.63249 7.53824C8.01089 7.79433 7.44596 8.17061 6.9701 8.6455C6.49423 9.12038 6.1168 9.68454 5.85943 10.3056C5.60207 10.9267 5.46984 11.5925 5.47033 12.2647L5.46821 19.9611C5.47122 21.3174 6.01169 22.6173 6.97123 23.5759C7.93076 24.5345 9.23113 25.0738 10.5875 25.0755L25.9495 25.0797ZM18.2713 14.8363L20.8316 14.837L20.8309 17.3973L18.2706 17.3966L18.2713 14.8363ZM10.5903 14.8342L13.1506 14.8349L13.1499 17.3952L10.5896 17.3945L10.5903 14.8342Z" fill="#4C655C"/>
</g>
<defs>
<clipPath id="clip0_2_1261">
<rect width="30.724" height="30.724" fill="white" transform="translate(0.352539 0.749634) rotate(0.0157986)"/>
</clipPath>
</defs>
</svg>
