<svg width="32" height="32" viewBox="0 0 32 32" fill="none" xmlns="http://www.w3.org/2000/svg">
<path d="M15.6813 29.0898C8.61097 29.0878 2.88124 23.3549 2.88319 16.2846C2.88477 10.552 6.65364 5.7012 11.8477 4.0717L11.847 6.79077C9.64603 7.68378 7.82374 9.31378 6.69183 11.4019C5.55992 13.4901 5.18872 15.9067 5.64174 18.2383C6.09475 20.5699 7.34382 22.6717 9.17529 24.1841C11.0068 25.6965 13.3068 26.5255 15.682 26.5294C17.7223 26.53 19.7163 25.9213 21.4085 24.7813C23.1007 23.6414 24.414 22.0222 25.1801 20.1312L27.8992 20.132C26.2668 25.3252 21.4139 29.0914 15.6813 29.0898ZM28.4222 17.5718L14.4043 17.5679L14.4082 3.5501C14.8294 3.50797 15.257 3.48632 15.6884 3.48644C22.7588 3.48839 28.4885 9.22128 28.4865 16.2916C28.4864 16.7231 28.4645 17.1506 28.4222 17.5718ZM16.9678 6.1265L16.9654 15.0083L25.8472 15.0107C25.5629 12.7545 24.536 10.657 22.9285 9.0485C21.3209 7.44004 19.2239 6.41207 16.9678 6.1265Z" fill="#4C655C"/>
</svg>
