<svg width="31" height="31" viewBox="0 0 31 31" fill="none" xmlns="http://www.w3.org/2000/svg">
<path d="M5.39052 23.3101L7.95085 23.3109L7.95015 25.8712L23.3122 25.8754L23.3178 5.39275L7.95579 5.38852L7.95509 7.94885L5.39475 7.94814L5.39581 4.10764C5.39591 3.76812 5.53087 3.44254 5.77101 3.20253C6.01116 2.96252 6.33681 2.82773 6.67633 2.82783L24.5987 2.83277C24.9382 2.83286 25.2638 2.96783 25.5038 3.20797C25.7438 3.44812 25.8786 3.77377 25.8785 4.11329L25.8721 27.1563C25.872 27.4958 25.7371 27.8214 25.4969 28.0614C25.2568 28.3014 24.9311 28.4362 24.5916 28.4361L6.66927 28.4312C6.32975 28.4311 6.00417 28.2961 5.76416 28.056C5.52415 27.8158 5.38937 27.4902 5.38946 27.1506L5.39052 23.3101ZM7.95332 14.3497L16.9145 14.3522L16.9138 16.9125L7.95262 16.91L7.95156 20.7505L1.55213 15.6281L7.95438 10.5092L7.95332 14.3497Z" fill="#4C655C"/>
</svg>
