<svg width="34" height="33" viewBox="0 0 34 33" fill="none" xmlns="http://www.w3.org/2000/svg">
<g clip-path="url(#clip0_2_1265)">
<path d="M4.85619 23.309C4.27922 22.3106 3.8308 21.2433 3.52159 20.1324C4.19531 19.79 4.76116 19.2679 5.15657 18.6238C5.55197 17.9798 5.76151 17.2389 5.762 16.4832C5.76249 15.7274 5.55392 14.9863 5.15935 14.3417C4.76478 13.6972 4.1996 13.1743 3.52634 12.831C4.14421 10.5992 5.32006 8.56149 6.94312 6.90973C7.57673 7.32192 8.31203 7.55076 9.06764 7.57093C9.82325 7.5911 10.5697 7.40181 11.2244 7.02402C11.8791 6.64623 12.4165 6.09466 12.7772 5.43036C13.1378 4.76606 13.3076 4.01493 13.2678 3.2601C15.5103 2.68122 17.8632 2.68281 20.1049 3.26472C20.0651 4.01951 20.2348 4.77062 20.5953 5.43493C20.9559 6.09924 21.4932 6.65085 22.1478 7.02871C22.8024 7.40657 23.5488 7.59596 24.3044 7.57591C25.06 7.55586 25.7953 7.32715 26.429 6.91511C27.2194 7.72098 27.921 8.63743 28.5106 9.66036C29.1016 10.6833 29.5437 11.7499 29.8452 12.8369C29.1715 13.1793 28.6056 13.7014 28.2102 14.3455C27.8148 14.9895 27.6053 15.7304 27.6048 16.4861C27.6043 17.2419 27.8129 17.983 28.2075 18.6276C28.602 19.2721 29.1672 19.795 29.8405 20.1383C29.2226 22.3701 28.0467 24.4078 26.4237 26.0596C25.7901 25.6474 25.0548 25.4186 24.2992 25.3984C23.5436 25.3782 22.7971 25.5675 22.1424 25.9453C21.4877 26.3231 20.9503 26.8746 20.5896 27.5389C20.229 28.2032 20.0592 28.9544 20.099 29.7092C17.8565 30.2881 15.5036 30.2865 13.2619 29.7046C13.3018 28.9498 13.132 28.1987 12.7715 27.5344C12.4109 26.8701 11.8736 26.3185 11.219 25.9406C10.5644 25.5627 9.81796 25.3734 9.06238 25.3934C8.3068 25.4135 7.5715 25.6422 6.93784 26.0542C6.13103 25.2305 5.43161 24.3081 4.85619 23.309ZM12.5849 23.5787C14.0398 24.4184 15.1335 25.7656 15.6563 27.362C16.3376 27.4264 17.0218 27.428 17.7032 27.364C18.2272 25.7676 19.3221 24.421 20.778 23.5824C22.2328 22.7412 23.947 22.4669 25.5916 22.8122C25.9878 22.2551 26.3293 21.6612 26.6135 21.04C25.4934 19.7881 24.8748 18.1668 24.8765 16.4869C24.8769 14.7664 25.5192 13.1593 26.616 11.9348C26.3302 11.3136 25.9875 10.7202 25.5924 10.1621C23.9486 10.5061 22.2356 10.2314 20.7819 9.39059C19.327 8.5509 18.2333 7.20368 17.7105 5.60727C17.0292 5.54291 16.345 5.54135 15.6636 5.60534C15.1397 7.20168 14.0447 8.54834 12.5888 9.38696C11.134 10.2281 9.41982 10.5024 7.77518 10.1571C7.3798 10.7146 7.03767 11.3079 6.75329 11.9293C7.87345 13.1812 8.492 14.8025 8.49033 16.4824C8.48986 18.2029 7.84762 19.81 6.75078 21.0345C7.03664 21.6557 7.37932 22.2491 7.77443 22.8072C9.41821 22.4632 11.1312 22.7379 12.5849 23.5787ZM16.6823 20.5812C15.5958 20.5809 14.554 20.149 13.7859 19.3805C13.0179 18.6121 12.5866 17.57 12.5869 16.4835C12.5872 15.3971 13.0191 14.3552 13.7875 13.5872C14.556 12.8191 15.5981 12.3878 16.6845 12.3881C17.771 12.3884 18.8129 12.8203 19.5809 13.5888C20.3489 14.3572 20.7802 15.3993 20.7799 16.4858C20.7796 17.5723 20.3478 18.6141 19.5793 19.3821C18.8108 20.1502 17.7687 20.5815 16.6823 20.5812ZM16.683 17.8502C17.0452 17.8503 17.3925 17.7065 17.6487 17.4505C17.9049 17.1945 18.0488 16.8472 18.0489 16.485C18.049 16.1229 17.9052 15.7755 17.6492 15.5194C17.3932 15.2632 17.0459 15.1192 16.6838 15.1191C16.3216 15.119 15.9743 15.2628 15.7181 15.5188C15.462 15.7748 15.318 16.1221 15.3179 16.4843C15.3178 16.8464 15.4616 17.1938 15.7176 17.45C15.9736 17.7061 16.3209 17.8501 16.683 17.8502Z" fill="#4C655C"/>
</g>
<defs>
<clipPath id="clip0_2_1265">
<rect width="32.7723" height="32.7723" fill="white" transform="translate(0.301758 0.09375) rotate(0.0157986)"/>
</clipPath>
</defs>
</svg>
